/* XPM */
static char *c6da4b567f2b443aed55e7cb01895108[] = {
/* columns rows colors chars-per-pixel */
"32 32 4 1 ",
"  c #D0DFE5",
". c #D0E0E5",
"X c #D1E0E5",
"o c None",
/* pixels */
"oooooooooooooooooooooooooooooooo",
"oooooooooooooXX.X.X oooooooooooo",
"oooooooooo.XX..X.XX.X.Xooooooooo",
"ooooooooX.XX..XXX.X..XX.oooooooo",
"oooooooXX.XX...XX....XXXX.oooooo",
"oooooo.XX..X.XXX.XXX...XX.Xooooo",
"oooooXX..XXX..XX..XX....X...oooo",
"ooooXXXX..X.X.XXX.....X.XXX.Xooo",
"oooXX.ooXX..X.oo.X..XXoooooXXooo",
"oooXoooooXXXXooooX..XooooooooXoo",
"ooXXooooooXXXoooooX.ooooo ooo.oo",
"ooXXoooooo.XXoooooXXoooooooooXXo",
"oXXXXooooooXXooooooXXoooooooo.Xo",
"oX.XXXoooooXXooooooXXoooXXXXXXXo",
"oX...XooooooXooooooo..oXX.XXX..o",
"oX.X.XXoooooXoooooooXXXX...XX.Xo",
"oX..XXXooooooooooooooXX...X.X..o",
"oX..XX.XoooooooooooooXX....X..Xo",
"oXXXX...oooooooXooooooXXX..X.XXo",
"oX.X....XooooooXXooooo.X.....XXo",
"ooX..XX.XooooooXXooooooXX..X.X.o",
"oo..X....XooooooXXoooooXX.XX.Xoo",
"oo...X..XXooooooX.oooooooXX.XXoo",
"ooo..XXXX.XooooXX.XoooooXX...Xoo",
"ooooXX..XXXooooX.XXoooooXXX.Xooo",
"oooo.X.XXXXXXXX..X..XXX...XXoooo",
"oooooXX..X.XX.X...X.X.X..XXooooo",
"ooooooXX..X.XXXXX..XX..XXXoooooo",
"oooooooXXX..XXXXX.XX..XXXooooooo",
"oooooooooX.....XXX.X.XX.oooooooo",
"oooooooooooXXXXXXX..Xooooooooooo",
"oooooooooooooooooooooooooooooooo"
};
