/* XPM */
static char *e532547ce8ea41c886961739029fde5d[] = {
/* columns rows colors chars-per-pixel */
"128 128 7 1 ",
"  c #D0DFE4",
". c #D0DFE5",
"X c #D0E0E4",
"o c #D1E0E4",
"O c #D0E0E5",
"+ c #D1E0E5",
"@ c None",
/* pixels */
"@@@@@@@@@@@@@@@@@@@@@@@@@@@@@@@@@@@@@@@@@@@@@@@@@@@@@@@@@@@@@@@@@@@@@@@@@@@@@@@@@@@@@@@@@@@@@@@@@@@@@@@@@@@@@@@@@@@@@@@@@@@@@@@@",
"@@@@@@@@@@@@@@@@@@@@@@@@@@@@@@@@@@@@@@@@@@@@@@@@@@@@@@@@@@@@@@@@@@@@@@@@@@@@@@@@@@@@@@@@@@@@@@@@@@@@@@@@@@@@@@@@@@@@@@@@@@@@@@@@",
"@@@@@@@@@@@@@@@@@@@@@@@@@@@@@@@@@@@@@@@@@@@@@@@@@@@@@@@@@@@@@@@@@@@@@@@@@@@@@@@@@@@@@@@@@@@@@@@@@@@@@@@@@@@@@@@@@@@@@@@@@@@@@@@@",
"@@@@@@@@@@@@@@@@@@@@@@@@@@@@@@@@@@@@@@@@@@@@@@@@@@@@@@@@@@O..OO..  ...@@@@@@@@@@@@@@@@@@@@@@@@@@@@@@@@@@@@@@@@@@@@@@@@@@@@@@@@@@",
"@@@@@@@@@@@@@@@@@@@@@@@@@@@@@@@@@@@@@@@@@@@@@@@@@@@ OOO+ .O .+OO++.O++O OOOO.@@@@@@@@@@@@@@@@@@@@@@@@@@@@@@@@@@@@@@@@@@@@@@@@@@@",
"@@@@@@@@@@@@@@@@@@@@@@@@@@@@@@@@@@@@@@@@@@@@@@@+O.OOOOO+OO+.++O.+O.+. O+ .o..O+..@@@@@@@@@@@@@@@@@@@@@@@@@@@@@@@@@@@@@@@@@@@@@@@",
"@@@@@@@@@@@@@@@@@@@@@@@@@@@@@@@@@@@@@@@@@@@@O+  OO.+ .. OOo.. Oo..++ O+. ..OOO.OOOO @@@@@@@@@@@@@@@@@@@@@@@@@@@@@@@@@@@@@@@@@@@@",
"@@@@@@@@@@@@@@@@@@@@@@@@@@@@@@@@@@@@@@@@@@...o..O.++O. + .  O +O.OOO +O.OO..o+. OOOO.O@@@@@@@@@@@@@@@@@@@@@@@@@@@@@@@@@@@@@@@@@@",
"@@@@@@@@@@@@@@@@@@@@@@@@@@@@@@@@@@@@@@@+OO.+OoOOOO....OO .OO O O+OOO..O+Oo+oOOOO .+OO +OO@@@@@@@@@@@@@@@@@@@@@@@@@@@@@@@@@@@@@@@",
"@@@@@@@@@@@@@@@@@@@@@@@@@@@@@@@@@@@@@.OO+OO + OOO+.+o .O+..O.OO +o+O.o +OOO..OOO .OO.. OOOO@@@@@@@@@@@@@@@@@@@@@@@@@@@@@@@@@@@@@",
"@@@@@@@@@@@@@@@@@@@@@@@@@@@@@@@@@@@ OO.O.O+ ++O.OO+O+OO+oOOO+o+++ OO OO  +. O++OOo ..+++..OO.@@@@@@@@@@@@@@@@@@@@@@@@@@@@@@@@@@@",
"@@@@@@@@@@@@@@@@@@@@@@@@@@@@@@@@@O..OOOOOOO O+ O .+O..+O.OoOO+++o.+  O .  OO +O.OOO.o O .O+.OOO@@@@@@@@@@@@@@@@@@@@@@@@@@@@@@@@@",
"@@@@@@@@@@@@@@@@@@@@@@@@@@@@@@@@OOoOOOO OOO+OOOO+O .oO.O.o .OO+O.++.OOOoOOOOOO+OO OO +OO.OO.OoO @@@@@@@@@@@@@@@@@@@@@@@@@@@@@@@@",
"@@@@@@@@@@@@@@@@@@@@@@@@@@@@@@OO  Oo.ooO  OOO.O+Oo OOO  O.OO+O+OO. .o O+.O+Oo O  .+ +++.o .Oo+OO.O@@@@@@@@@@@@@@@@@@@@@@@@@@@@@@",
"@@@@@@@@@@@@@@@@@@@@@@@@@@@@@.OO  oO...O+O....OO  Oo..OO++Oo O++O+ O.+ O OO+OOO O+ .+.OO++OO.+OOoO+@@@@@@@@@@@@@@@@@@@@@@@@@@@@@",
"@@@@@@@@@@@@@@@@@@@@@@@@@@@OO..OOOOO..OoO+O O .OOOo..oOOOOO ..OOOO O.  +.O+ O   ++ OoOOOOO  OO+ OO..O@@@@@@@@@@@@@@@@@@@@@@@@@@@",
"@@@@@@@@@@@@@@@@@@@@@@@@@@ .O .++O+  ++Oo.Oo..Oo .+OOo..   OO.+O .+O +.+OOO O  O+OO .Oo+  OoO+O..OOo .@@@@@@@@@@@@@@@@@@@@@@@@@@",
"@@@@@@@@@@@@@@@@@@@@@@@@@O+...++O O+ .+O .++OoO. Oo..O++OOOOO.OOOOO...OO   .O+.+OO+O.+O.OO ++OOO.o+. .+@@@@@@@@@@@@@@@@@@@@@@@@@",
"@@@@@@@@@@@@@@@@@@@@@@@@OO+ +Oo+ OOO+o OOO+o.O+.O O+ OOOOOO+  +O++Oo .+ . + .+.  .ooo++ ++. OO +OO O  .O@@@@@@@@@@@@@@@@@@@@@@@@",
"@@@@@@@@@@@@@@@@@@@@@@@O.O++O O.+. O.OO OOO..o +. .O++ +.OOO.o++O  OO+.OoOoO+.+ +.O  OO OO  +++++OOo O  O@@@@@@@@@@@@@@@@@@@@@@@",
"@@@@@@@@@@@@@@@@@@@@@@... O+o.O.O.  ++O.O .++.OOoO ..O+ ++.+O..+.  .++ O++..O .OO+O  O +O O+OOOOOOo.++OO+.@@@@@@@@@@@@@@@@@@@@@@",
"@@@@@@@@@@@@@@@@@@@@@O+++O  .O.o.++.O...+O ++ O+OO  OO..+O OOOOO . +O ++OO OO..Oo+O O.++....OOOo + .. O.OO.@@@@@@@@@@@@@@@@@@@@@",
"@@@@@@@@@@@@@@@@@@@@OOOO+ O.O++  O+. ...+OOO.O. O ++.. O+ Oo++O..O+OO.O+OOO.O.+o..OO.OOOOO++.oO.O+OOO.oO .O.@@@@@@@@@@@@@@@@@@@@",
"@@@@@@@@@@@@@@@@@@@OO.OOO+O.O+ O  O.oOO.o OO  O   +O ..O..OOO+ +.O+.OOO++O..OoOO .++ O..++O+OO +O++O.OOO .Oo.@@@@@@@@@@@@@@@@@@@",
"@@@@@@@@@@@@@@@@@@+..O+.+.O .o O.OO. .. OO.. O.OOOO++OO. .+O  O .+O.+OoO  O+O..OOO+OO+ oOOOO O++OOOO OO.O+  .+@@@@@@@@@@@@@@@@@@",
"@@@@@@@@@@@@@@@@@O.+OOOO+. O. + ..+. O..OOOOo+++Ooo+ OOoOOOo++O+ .+.O O+OOOO+ . .+.O  O.OO. ++++.+O. OO . O+O .@@@@@@@@@@@@@@@@@",
"@@@@@@@@@@@@@@@@O..OoOOO++ .OO OOOOOO.O+ O oO++ .O+..OOO...O++O  ..O+O+++O.O+.O  .O   + .O.OO O+O+++ .+O .O o+.+@@@@@@@@@@@@@@@@",
"@@@@@@@@@@@@@@@.O+OO..OOOOO  .O.O  o++O+ .O .oO  O+++OOO+O++ O+O O.O  OOo. +  +O+.+ +O+++ ++OO .+O + +O+OOOoO O..@@@@@@@@@@@@@@@",
"@@@@@@@@@@@@@@@OO OO .O OO O+oO.  ..+..OOO .O  OO..O+OOOO.  .++. ooO OO  oOO++OO.O..OO+.+o..  +  OOOO+ +OO  O.O .@@@@@@@@@@@@@@@",
"@@@@@@@@@@@@@@++.OO O++ ++.O++oOO .O OO+O+. +OO++ ..oOOO++ ++ .++O O++++.O. .+OOoOO.O+O OO O++.O.oOo++.+OOOOOO.OO @@@@@@@@@@@@@@",
"@@@@@@@@@@@@@+..++OO O..oOOo OO+o.OO.O+. OOo.OOOO+.. OO OO+OoO. . OOO+O+. .O .. +++.OO +...O++ .OO O  O+ O+.+O OOO+@@@@@@@@@@@@@",
"@@@@@@@@@@@@@+ O.O+O OO+O++....+OO.oo+O OO O. .Oo++O  .ooOo .OO. + OO.oOOO  +  OO  +O .O++++O .OO.+.OO. oO..O .OOO+@@@@@@@@@@@@@",
"@@@@@@@@@@@@+.+. ++. +OO..OOOOOO.++OO.+  OO+O OO.o.Oo.OO..OO+O..++O+O OOo..O.OOoO. +OOO.++.+OO.++O+. OO...OO.OO. +O.@@@@@@@@@@@@",
"@@@@@@@@@@@OOOO.+.oOO.@@@@@@@@@@ O+.O.++..O +OoOOO.OOO.O@@@@@@@@O.O+OOO..OoOOOOO +++.+O@@@@@@@@@@@@@@@@@@@@@@@+O++O++@@@@@@@@@@@",
"@@@@@@@@@@@+  ..OOO@@@@@@@@@@@@@@. +o..oO+. o +o+o+O O@@@@@@@@@@@@OO+OOOOOO  + O O O+@@@@@@@@@@@@@@@@@@@@@@@@@@@+.O O@@@@@@@@@@@",
"@@@@@@@@@@O++ O.OO@@@@@@@@@@@@@@@@@.+O++O.++O+O  .O+ @@@@@@@@@@@@@@O++.OO.+ OO OO.++@@@@@@@@@@@@@@@@@@@@@@@@@@@@@ .+.O@@@@@@@@@@",
"@@@@@@@@@@OOOO+ .@@@@@@@@@@@@@@@@@@@.+++O o.OoOOO...@@@@@@@@@@@@@@@@.+o  O..O..+O++@@@@@@@@@@@@@@@@@@@@@@@@@@@@@@@ + +@@@@@@@@@@",
"@@@@@@@@@.OO+++ @@@@@@@@@@@@@@@@@@@@OO+. OO..o+OOO.O@@@@@@@@@@@@@@@@@OoOO+O.o.O+oO@@@@@@@@@@@@@@@@@@@@@@@@@@@@@@@@OO ++@@@@@@@@@",
"@@@@@@@@@.O  OO@@@@@@@@@@@@@@@@@@@@@@O.  ++ +O. O+O@@@@@@@@@@@@@@@@@@O..+  +O OO.+@@@@@@@@@@@@@@@@@@@@@@@@@@@@@@@@@OO.O@@@@@@@@@",
"@@@@@@@@+O+   .@@@@@@@@@@@@@@@@@@@@@@+ .+ OO+ O+.O.@@@@@@@@@@@@@@@@@@@..O +.OOoO.@@@@@@@@@@@@@@@@@@@@@@@@@@@@@@@@@@.OO.O@@@@@@@@",
"@@@@@@@@ + oO.@@@@@@@@@@@@@@@@@@@@@@@@.O+ O+O+OO.O@@@@@@@@@@@@@@@@@@@@O+ O  .O .O@@@@@@@@@@@@@@@@@@@@@@@@@@@@@@@@@@@OO. @@@@@@@@",
"@@@@@@@@++O  +@@@@@@@@@@@@@@@@@@@@@@@@O O+oOO+.+OO@@@@@@@@@@@@@@@@@@@@@+o.O.OOOOO@@@@@@@@@@@+O@@@O.@@@.+@@@@@@@@@@@@.OoO@@@@@@@@",
"@@@@@@@O+O. O+@@@@@@@@@@@@@@@@@@@@@@@@@.++OO+O OOO@@@@@@@@@@@@@@@@@@@@@.O.OOO.OOO@@@@@@@@@@O+O+@@..+@O.+.@@@@@@@@@@@ OoO.@@@@@@@",
"@@@@@@@...o.+O@@@@@@@@@@@@@@@@@@@@@@@@@O+ O+O.. O.@@@@@@@@@@@@@@@@@@@@@@O.O+Oo OO@@@@@@@@@@@OOo@@++ @@OOO@@@@@@@@@@@ o++.@@@@@@@",
"@@@@@@OO++O+.@@@@@@@@@@@@@@@@@@@@@@@@@@@ .O.oo.O..@@@@@@@@@@@@@@@@@@@@@@O.OO.+O.+@@@@@@@@@@@@@@@@@@@@@@@@@@@@@@@@@@@.OOO.+@@@@@@",
"@@@@@@. OO+o @@@@@@@@@@@@@@@@@@@@@@@@@@@ +O oOoOO @@@@@@@@@@@@@@@@@@@@@@OOOOO++O.@@@@@@@@@@@@@@@@@@@@@@@@@@@@@@@@@@OO+  OO@@@@@@",
"@@@@@@.+OO .+@@@@@@@@@@@@@@@@@@@@@@@@@@@@O .OOO+O+@@@@@@@@@@@@@@@@@@@@@@@.+O.oO O@@@@@@@@@@@@@@@@@@@@@@@@@@@@@@@@@@.O.O O+@@@@@@",
"@@@@@...++O.O.@@@+O@@@@@@@@@@@@@@@@@@@@@@OOO.oOO..@@@@@@@@@@@@@@@@@@@@@@@+O OO.OO@@@@@@@@@@@@@@@@@@@@@@@@@@@@@@@@@@. O O.oO@@@@@",
"@@@@@+..OOoOO @@.+O.@@@@@@@@@@@@@@@@@@@@@@..+..o. @@@@@@@@@@@@@@@@@@@@@@@@+OOOOO..@@@@@@@@@@@@@@@@@@@@@@@@@@@@@@@@O.Oo..+O.@@@@@",
"@@@@@OO..OOOOO@.+.++@@@@@@@@@@@@@@@@@@@@@@.+O.O+OO@@@@@@@@@@@@@@@@@@@@@@@@.+..O++O@@@@@@@@@@@@@@@@@@@@@@@@@@@@@@@..O++++O +@@@@@",
"@@@@@ O oOO.O+OO+ OOO@@@@@@@@@@@@@@@@@@@@@@+Oo.OO @@@@@@@@@@@@@@@@@@@@@@@@@O OOOO+.@@@@@@@@@@@@@@@@@@@@@@@@@@@@@+..+ Oo+OO+@@@@@",
"@@@@+O++OOO++OO+.  ++@@@@@@@@@@@@@@@@@@@@@@OO.OO +@@@@@@@@@@@@@@@@@@@@@@@@@O+.. O  @@@@@@@@@@@@@@@@@@@@@@@@@@@@O+O ++ .+OO.+@@@@",
"@@@@.OO+ O+OO Oo.OOO..@@@@@@@@@@@@@@@@@@@@@@ o+.O+@@@@@@@@@@@@@@@@@@@@@@@@@@. .O .oO@@@@@@@@@@@@@@@@@@@@@@@@O+OoO+O OO+.  ++@@@@",
"@@@@ .OO o+. ..OOO+o +@@@@@@@@@@@@@@@@@@@@@@.oO.++@@@@@@@@@@@@@@@@@@@@@@@@@@.+OOO..OO@@@@@@@.OOOO....oOO..O++..+++.OO.OO.OoO@@@@",
"@@@@OoO+.O.O+O.. Oo.++.@@@@@@@@@@@@@@@@@@@@@@.++O+@@@@@@@@@@@@@@@@@@@@@@@@@@@OOOO+ .O@@@@@@@O++. . OOO..+O+.O+OO+oo  +OOO+O.@@@@",
"@@@@OO.O+++OO+ o.O .+.O@@@@@@@@@@@@@@@@@@@@@@.O+++@@@@@@@@@@@@@@@@@@@@@@@@@@@.O++Oo..O@@@@@@+o++.O.  ...+++++O O+OoO.+OO+O..@@@@",
"@@@@.OO..OO+  OO .OO +.+@@@@@@@@@@@@@@@@@@@@@@Oo..@@@@@@@@@@@@@@@@@@@@@@@@@@@@.  O O+O+@@@@@.+..++ O  O.O O++O.O.OOO  + O.o @@@@",
"@@@@.OO++..+O +O .++  +O@@@@@@@@@@@@@@@@@@@@@@. . @@@@@@@@@@@@@@@@@@@@@@@@@@@@OOO+  +OOO@@@..+O +O.+. +.O+O.O+O+.o+. O   ...@@@@",
"@@@O . o     OO.++.O+ O+@@@@@@@@@@@@@@@@@@@@@@@++O@@@@@@@@@@@@@@@@@@@@@@@@@@@@@+++OO  ++.@@+OOO+OO.O .OOO+++O +OOO .O+O++.OO+@@@",
"@@@OoOO OO+ .+O oO+OO+++.@@@@@@@@@@@@@@@@@@@@@@O+.@@@@@@@@@@@@@@@@@@@@@@@@@@@@@.O. O.++ +@@@OO O oo.. O+..O+O+++oO+++o+OO+O++@@@",
"@@@.O.OOO+OOOOoO.OO+OOO.O@@@@@@@@@@@@@@@@@@@@@@@.O@@@@@@@@@@@@@@@@@@@@@@@@@@@@@@O.  oO.oO.@@ O+.OOO+OO .O ..O+ +O...OOO.O  .O@@@",
"@@@oO..+++ oOO O++O OOO OO@@@@@@@@@@@@@@@@@@@@@@ +@@@@@@@@@@@@@@@@@@@@@@@@@@@@@@OO.O+  ++..+Oo+OO  .++O+.+.O o+.O.  O+O +..+.@@@",
"@@@O .O++O+..OO +OO+ + +O.@@@@@@@@@@@@@@@@@@@@@@@O@@@@@@@@@@@@@@@@@@@@@@@@@@@@@@@+.O.++OO.OOO+. O++.O+OOO+O.++O OO+.OO+ +OO.+@@@",
"@@@. .++OOO. ++.o.OO OO+OO+@@@@@@@@@@@@@@@@@@@@@@O@@@@@@@@@@@@@@@@@@@@@@@@@@@@@@@O OOO.OO+  Oo.O+... O O... OO.+ .O.+O .. OO+@@@",
"@@@++.  OOOoO. .O.OO O+ O+O@@@@@@@@@@@@@@@@@@@@@@@@@@@@@@@@@@@@@@@@@@@@@@@@@@@@@@@.O+++ +OOO+.o.OO.OOOOO..+O.OO+.OooO O+....+@@@",
"@@@ +.OO.O  .+O+OO Oo.OO+O.+@@@@@@@@@@@@@@@@@@@@@@@@@@@@@@@@@@@@@@@@@@@@@@@@@@@@@@ .O+OO  O. OO.OOo+OO +O. OO OO .O  OO ++.O @@@",
"@@@.+.O+oO.+O . oO.++o....++@@@@@@@@@@@@@@@@@@@@@@@@@@@@@@@@@@@@@@@@@@@@@@@@@@@@@@@.O oO.+O.O+oO.OO+O ++. .OO +O .OO.O.O .+O+@@@",
"@@@+.OO O.O+ .O  OOoO.O++ OO.@@@@@@@@@@@@@@@@@@@@@@@@@@@@@@@@@@@@@@@@@@@@@@@@@@@@@@.+O.O++O+O+O  .O.O++OOO.OOOooO. OOO . OoO.@@@",
"@@@+ O O.Oo. .oO+.o  O+O+.++O@@@@@@@@@@@@@@@@@@@@@@@@@@@@@@@@+@@@@@@@@@@@@@@@@@@@@@@+OOo+O+..o...Oo o++.+++  +O. oO.OO..+O  O@@@",
"@@@+OO O ..OO .O +OOOOO +O+  +@@@@@@@@@@@@@@@@@@@@@@@@@@@@@@@O@@@@@@@@@@@@@@@@@@@@@@.O..O O+Oo+OOO...  OOO+.++.OO..OoOO.oO+O+@@@",
"@@@@o .  OO OOO+++OO++OO... .+@@@@@@@@@@@@@@@@@@@@@@@@@@@@@@@.O@@@@@@@@@@@@@@@@@@@@@@+o..OO O. O+O++...OOOOO+o+ .. OOOOOOOO+@@@@",
"@@@@.OO+ o++Oo+O+. +OOOOOOo ..O@@@@@@@@@@@@@@@@@@@@@@@@@@@@@@.+@@@@@@@@@@@@@@@@@@@@@@OOO+OO+OO ++.O+++.O+ OOO.+.oO OoOOOOO.O@@@@",
"@@@@O+.O++OO. O++O+O O  OoO.O+.@@@@@@@@@@@@@@@@@@@@@@@@@@@@@@O++@@@@@@@@@@@@@@@@@@@@@.+ O++O. +O.oOo.++ ++.O.++++OOOO.OO. OO@@@@",
"@@@@OOO ++++OoO+++OOO +..+..O+Oo@@@@@@@@@@@@@@@@@@@@@@@@@@@@@+OO@@@@@@@@@@@@@@@@@@@@@@+ .O+O OoO+OO.O...O+O.+O+. OO  . +..oO@@@@",
"@@@@.++   O. +.OO.O .OO. O. O+O.@@@@@@@@@@@@@@@@@@@@@@@@@@@@@+++O@@@@@@@@@@@@@@@@@@@@@OO .O+ OO  OOO  .  .  O  O. .+OOOOOOO.@@@@",
"@@@@.+ oOO+  O+.o.O..O. O o+  OOO@@@@@@@@@@@@@@@@@@@@@@@@@@@@++OO@@@@@@@@@@@@@@@@@@@@@@.o+. O ..Oo+o.+O..O+oO.+OO.oOO.O  ++O@@@@",
"@@@@OO..+O+..O. O.++O .O.. +OO .O@@@@@@@@@@@@@@@@@@@@@@@@@@@@++..@@@@@@@@@@@@@@@@@@@@@@OOOO.OOOO+OO...OOO O+. +O.  O+.+O.O+.@@@@",
"@@@@@.+.  O+o.Oo.OO +.o+O+.OO+O+O+@@@@@@@@@@@@@@@@@@@@@@@@@@@+O++O@@@@@@@@@@@@@@@@@@@@@@. ..OO+.+Oo.o O+o O o+... ++++O+..+@@@@@",
"@@@@@O.o O.O  OOOO .o+OO ++.O+O+.O@@@@@@@@@@@@@@@@@@@@@@@@@@@O+++ @@@@@@@@@@@@@@@@@@@@@@OOO+.O .O.OO O  OO+++.O+.+O+OO..+OO@@@@@",
"@@@@@ OO. O OOOo.O.O +..OO O+  OO++@@@@@@@@@@@@@@@@@@@@@@@@@@.+OO.O@@@@@@@@@@@@@@@@@@@@@@..oO..o O. .OO... +.O+.O.OOOO..oO.@@@@@",
"@@@@@..O..+OOO+ ..++  ..OO .oOO+.++@@@@@@@@@@@@@@@@@@@@@@@@@@.OO.+O@@@@@@@@@@@@@@@@@@@@@@O.O+O+O.OOoO.+O.OO+  ..OO  ++.OOO+@@@@@",
"@@@@@@.+OO O.oO .+O .+OO..+O. .OO .+@@@@@@@@@@@@@@@@@@@@@@@@@ .+.+.+@@@@@@@@@@@@@@@@@@@@@@..OO  O.O. .O+OoOO+O.O.O+ O++.+.@@@@@@",
"@@@@@@..+O.oOO O+.O+.O+O.O+O+ Oo Oo+@@@@@@@@@@@@@@@@@@@@@@@@@.. .OOO@@@@@@@@@@@@@@@@@@@@@@ ..OO. + O   OoOOOO OOOo OOOO+++@@@@@@",
"@@@@@@OO+++..o.OOO+.oOOOO+Oo+O+OO  +.@@@@@@@@@@@@@@@@@@@@@@@@.OO+oO.+@@@@@@@@@@@@@@@@@@@@@@...O.@O..OO  +..oO.+ O..+. +O+O@@@@@@",
"@@@@@@@O  O.O.O  ++.+  .  OOOOOO   O+@@@@@@@@@@@@@@@@@@@@@@@@+oOOO.o+@@@@@@@@@@@@@@@@@@@@@@OOO+@@OOOOOO+. o...OOO.+o..  +@@@@@@@",
"@@@@@@@O ..O .OOO +OO .+O.O .+OOOO.O+.@@@@@@@@@@@@@@@@@@@@@@@+O.OO.O+O@@@@@@@@@@@@@@@@@@@@@@O+@@@+O o +OO+ O+o .OOO OO+ +@@@@@@@",
"@@@@@@@@OOOo +.OOO OO+++O O .++o.Oo .O@@@@@@@@@@@@@@@@@@@@@@@O.OO..O..@@@@@@@@@@@@@@@@@@@@@@@@@@@O.+OOo+O OOOO O.OOOO++.@@@@@@@@",
"@@@@@@@@OO + oO +O .Oo++..+oO+ +..O..O@@@@@@@@@@@@@@@@@@@@@@@..+oOOo..O@@@@@@@@@@@@@@@@@@@@@@@@@@+OOOOO+OOOOo. OOOo.O+OO@@@@@@@@",
"@@@@@@@@.OOo.+O..O.. .O .  oOOO+ .O   O@@@@@@@@@@@@@@@@@@@@@@O.  .OO ++@@@@@@@@@@@@@@@@@@@@@@@@@@O..oOO. O+ .OOOOO O+O.O@@@@@@@@",
"@@@@@@@@@ OO.OOO .. O.OOOo.O+O+O  OO OO@@@@@@@@@@@@@@@@@@@@@@+. ...OOOOO@@@@@@@@@@@@@@@@@@@@@@@@@O.Oo.Oo .OOo. +++O..O+@@@@@@@@@",
"@@@@@@@@@O. O. OooOO O++OOoO+.  +OOO+OO+@@@@@@@@@@@@@@@@@@@@@+O  OoOOO..@@@@@@@@@@@@@@@@@@@@@@@@@. O++.+OO .O+ ++O..+ +@@@@@@@@@",
"@@@@@@@@@@ O   O.O+OOOOO.O oOOO+O ..+++ @@@@@@@@@@@@@@@@@@@@@+O..oOOo+  +@@@@@@@@@@@@@@@@@@@@@@@@+ ++O.o+OOo+O.O..o+  @@@@@@@@@@",
"@@@@@@@@@@O.OO. .O++.  OOO.O.O.O.O O  OO.@@@@@@@@@@@@@@@@@@@@+O..O++ .O.O@@@@@@@@@@@@@@@@@@@@@@@O++O  .OO.O +O.O oOO+O@@@@@@@@@@",
"@@@@@@@@@@@O O.OO++O. + O.oO.O+ +. OO..O+@@@@@@@@@@@@@@@@@@@+O+oOOO +.+O.O@@@@@@@@@@@@@@@@@@@@@@+++OO+O.O.+O+   ..OOO@@@@@@@@@@@",
"@@@@@@@@@@@O.+.OOOOOoOO O ++ OO+ .+OOOO+O.@@@@@@@@@@@@@@@@@@ + OO+  O+O+ O@@@@@@@@@@@@@@@@@@@@@..+ +  O+.OO+O. OO.Oo+@@@@@@@@@@@",
"@@@@@@@@@@@@o.   O +OO+OO++ OO OOoOO O+..+@@@@@@@@@@@@@@@@@O...O+. +.. O++.@@@@@@@@@@@@@@@@@@@@++OOO O Oo+OO.  O+oO @@@@@@@@@@@@",
"@@@@@@@@@@@@@... ++O++++OOO..++ +OOO.  O. O@@@@@@@@@@@@@@@@+oOO .OOO. . OO.@@@@@@@@@@@@@@@@@@@Oo..O O++ ..++  OO +.@@@@@@@@@@@@@",
"@@@@@@@@@@@@@+O+O+O OO .. .O..+O++++O +OoOOO@@@@@@@@@@@@@@O++ oOo..O.OO.++OO@@@@@@@@@@@@@@@@@.oOoO OO.++. .+O+O++ +@@@@@@@@@@@@@",
"@@@@@@@@@@@@@@..++ O+O O..OO + +OO +OO .OO+O @@@@@@@@@@@@. +.. O . o+.++O+O .O@@@@@@@@@@@@@OO.Oo.O o+ ++ O+OOOOO+.@@@@@@@@@@@@@@",
"@@@@@@@@@@@@@@@O.  O. OO OoO OO.OO+OO+O+OOO++.+@@@@@@@@OO+OOO+O..OOO++OOO.OO+OO@@@@@@@@@@.O OOo..OOO OOO OO+.  .O@@@@@@@@@@@@@@@",
"@@@@@@@@@@@@@@@OO... +O+O.+ O++O+O+ .++o++. OO++.o O+oOOo.OOO.oOO.++O+. .OO. .OO.++  +. Ooo . O+O OO OOO+ O+  ..+@@@@@@@@@@@@@@@",
"@@@@@@@@@@@@@@@@+O.. OOOOo+++.+.. O+ .OOO Oo O+O.. +O OOO.+o.OoO + O+OO+O+ o.O+++.      O.. .+O OO OO.O O.O+OOOO@@@@@@@@@@@@@@@@",
"@@@@@@@@@@@@@@@@@.O+ O .O+.. .+++OOOO..OOO+.+O. ++O+.o+..OO.OoOO+.     OOOOoO O. +O OOo O..OOOO.OO..oOO.OO +. O@@@@@@@@@@@@@@@@@",
"@@@@@@@@@@@@@@@@@@O++OOOOO . O+++O.+OO. OOO.+OOO.+OOoO. O+++OOOOO.O.O  .  +O+.. .+O.o O  OO+  +.O..Oo +Oo..O+O@@@@@@@@@@@@@@@@@@",
"@@@@@@@@@@@@@@@@@@@.o+OO. ..+++OO   O  O. OO+O.Oo+ OOO...O..OO.O .O+++OoO.+  + OO +O .OO O+OO++OO+oo.OOo oOO+@@@@@@@@@@@@@@@@@@@",
"@@@@@@@@@@@@@@@@@@@@   .+O. .+ +O++.O ....OO++..O+..OOO   .+OOOOOO+OO .+OOO O +OOoO+Oo.O +O..OO+OOO. O.oO.OO@@@@@@@@@@@@@@@@@@@@",
"@@@@@@@@@@@@@@@@@@@@@OOO+O.OO +OOO OOOO +O O.O++OoOo..OO. ++O. .O.OO+. . o... .+++O  O.  o .+O.OO OO.OOOO.O@@@@@@@@@@@@@@@@@@@@@",
"@@@@@@@@@@@@@@@@@@@@@@O.oO.o+ OoOO++oO.O+OOO.oO .O  .OoOO.o  ooOO .o.O+ . +O + .++ O.OOO O  o+OOOO+O+OoO+O@@@@@@@@@@@@@@@@@@@@@@",
"@@@@@@@@@@@@@@@@@@@@@@@+O. o+oO++O+ oO.O .O+ O+O.OOO+OO.O++..++O.Oo.oOOO .O++O+O+O .+.  O.O+.OOOOO  +.++.@@@@@@@@@@@@@@@@@@@@@@@",
"@@@@@@@@@@@@@@@@@@@@@@@@..OOOo+ .OO Oo + + Oo..+o +O o++O +OO .OoOo.O.... ..OOO+ O.O  O.+o +O.. OO.+.o+.@@@@@@@@@@@@@@@@@@@@@@@@",
"@@@@@@@@@@@@@@@@@@@@@@@@@OOO +++.OO.OO++O. +O+OO+O++.+O+O.O+O   OOO Oo..o.. OO+OOo+. O+o + OOO o..+OOO @@@@@@@@@@@@@@@@@@@@@@@@@",
"@@@@@@@@@@@@@@@@@@@@@@@@@@+.OOO++.O+.OO O+OO. +.Oo.O O++OO+o O++O.O OOO+..O. OO+O.OOOO .++OO+ O+O O+OO@@@@@@@@@@@@@@@@@@@@@@@@@@",
"@@@@@@@@@@@@@@@@@@@@@@@@@@@..O+OOO+O . . +OO .o .+.  O+ O.OOO +O.O+O.O++OO+ +O..  OooO oO++O+ .OOOO+.@@@@@@@@@@@@@@@@@@@@@@@@@@@",
"@@@@@@@@@@@@@@@@@@@@@@@@@@@@@+O.OO.+OOO++OOO+..+O. +O O+Oo.O+++OO+o.  O.+++.O.OOOO+.OO++.O+OO++ +O+@@@@@@@@@@@@@@@@@@@@@@@@@@@@@",
"@@@@@@@@@@@@@@@@@@@@@@@@@@@@@@++OO.+ O+o.o OO  O+.o .+.  OOo++.OOOOO+O+.+O. OoOOO. .OOO+ .O OO.. O@@@@@@@@@@@@@@@@@@@@@@@@@@@@@@",
"@@@@@@@@@@@@@@@@@@@@@@@@@@@@@@@@OO.+O .. .O.OOOO.o.OOOO O..  .++OO .OoO+ .O O O+O OO .OO. O..OOO@@@@@@@@@@@@@@@@@@@@@@@@@@@@@@@@",
"@@@@@@@@@@@@@@@@@@@@@@@@@@@@@@@@@.++OO.+OOOooO..o .++ O+o  oO.O O+ ..O + OOOOOOOoOO.  OO.O++OOO@@@@@@@@@@@@@@@@@@@@@@@@@@@@@@@@@",
"@@@@@@@@@@@@@@@@@@@@@@@@@@@@@@@@@@@.+OO+O+ O.O o++.O... O++O..O O+.OOOO.. OOoO.O+OOOOOO+o OOO@@@@@@@@@@@@@@@@@@@@@@@@@@@@@@@@@@@",
"@@@@@@@@@@@@@@@@@@@@@@@@@@@@@@@@@@@@@++O+O+ O OOOO O.+  .OO OOOO. +O  .OO+ O+++..++o.+++O.O@@@@@@@@@@@@@@@@@@@@@@@@@@@@@@@@@@@@@",
"@@@@@@@@@@@@@@@@@@@@@@@@@@@@@@@@@@@@@@@O++. O.OO+O +O .+ .  OOOo  +...OOOO .+ ++OOo. O.O.@@@@@@@@@@@@@@@@@@@@@@@@@@@@@@@@@@@@@@@",
"@@@@@@@@@@@@@@@@@@@@@@@@@@@@@@@@@@@@@@@@@@+++ .+.O.OOOO O.OO++OO.+.OO+. .O+O+oo.O. ++O@@@@@@@@@@@@@@@@@@@@@@@@@@@@@@@@@@@@@@@@@@",
"@@@@@@@@@@@@@@@@@@@@@@@@@@@@@@@@@@@@@@@@@@@@O .OoO+O++O.O.Oo++OO+O..o+O..o++O+OOO+ O@@@@@@@@@@@@@@@@@@@@@@@@@@@@@@@@@@@@@@@@@@@@",
"@@@@@@@@@@@@@@@@@@@@@@@@@@@@@@@@@@@@@@@@@@@@@@@.O+OO  OoO++O..o+oOO. O+O .o..O OO@@@@@@@@@@@@@@@@@@@@@@@@@@@@@@@@@@@@@@@@@@@@@@@",
"@@@@@@@@@@@@@@@@@@@@@@@@@@@@@@@@@@@@@@@@@@@@@@@@@@@.OOOOOOO. .o+. oOOOOO.O. .@@@@@@@@@@@@@@@@@@@@@@@@@@@@@@@@@@@@@@@@@@@@@@@@@@@",
"@@@@@@@@@@@@@@@@@@@@@@@@@@@@@@@@@@@@@@@@@@@@@@@@@@@@@@@@@@+OO++++++.. @@@@@@@@@@@@@@@@@@@@@@@@@@@@@@@@@@@@@@@@@@@@@@@@@@@@@@@@@@",
"@@@@@@@@@@@@@@@@@@@@@@@@@@@@@@@@@@@@@@@@@@@@@@@@@@@@@@@@@@@@@@@@@@@@@@@@@@@@@@@@@@@@@@@@@@@@@@@@@@@@@@@@@@@@@@@@@@@@@@@@@@@@@@@@",
"@@@@@@@@@@@@@@@@@@@@@@@@@@@@@@@@@@@@@@@@@@@@@@@@@@@@@@@@@@@@@@@@@@@@@@@@@@@@@@@@@@@@@@@@@@@@@@@@@@@@@@@@@@@@@@@@@@@@@@@@@@@@@@@@",
"@@@@@@@@@@@@@@@@@@@@@@@@@@@@@@@@@@@@@@@@@@@@@@@@@@@@@@@@@@@@@@@@@@@@@@@@@@@@@@@@@@@@@@@@@@@@@@@@@@@@@@@@@@@@@@@@@@@@@@@@@@@@@@@@"
};
