/* XPM */
static char *_f4289680174421db20305b3f0cda4a9[] = {
/* columns rows colors chars-per-pixel */
"64 64 2 1 ",
"  c gray100",
". c None",
/* pixels */
"................................................................",
"..........................            ..........................",
"......................                   .......................",
"...................                         ....................",
".................                             ..................",
"................                                ................",
"..............                                    ..............",
".............                                      .............",
"............                                        ............",
"..........                                           ...........",
".........                                             ..........",
"........                                               .........",
"........                                                ........",
".......                                                  .......",
"......                                                    ......",
".....                                                     ......",
".....                                                      .....",
"....                                                       .....",
"....                                                        ....",
"...            .             .             .......          ....",
"...         ......         ......       .............        ...",
"...       .........       .......       ..............       ...",
"..        ..........      ........     ...............       ...",
"..        ..........      ........     ..... . . .....        ..",
"..        ...........     .........    ...............        ..",
".         . .........     .........    ...............        ..",
".            .........    ..........    .............          .",
".            .........    ..........    ...........            .",
".            ..........   ...........    ..                    .",
".             .........   ...........     .                    .",
".             ..........  ............                         .",
".              .........  ............                         .",
".              .......... .............                        .",
".               .......................                        .",
".               .............. .........                       .",
".                ............. .........                       .",
".                .............  .........                      .",
".                 ............  .........                      .",
".                 ............   .........                    ..",
"..                 ...........   .........                    ..",
"..                 ...........   ..........                   ..",
"..                  ..........    .........                   ..",
"..                  ..........    .......... .               ...",
"...                  .........     ...........               ...",
"...                  .........     ...........               ...",
"....                  ........      .........               ....",
"....                  .......       .........               ....",
".....                  ......        .......               .....",
".....                                   .                 ......",
"......                                                    ......",
".......                                                  .......",
".......                                                 ........",
"........                                               .........",
".........                                              .........",
"..........                                            ..........",
"...........                                          ...........",
"............                                       .............",
"..............                                    ..............",
"...............                                  ...............",
".................                              .................",
"...................                          ...................",
".....................                     ......................",
".........................              .........................",
"................................................................"
};
