/* XPM */
static char *f7bf90ab248c4714a9c91fd908e66fc7[] = {
/* columns rows colors chars-per-pixel */
"60 60 181 2 ",
"   c None",
".  c #A40721",
"X  c #AB0722",
"o  c #A50923",
"O  c #AC0A25",
"+  c #B40623",
"@  c #BB0725",
"#  c #B40A26",
"$  c #BA0A27",
"%  c #B60E2A",
"&  c #BD0B28",
"*  c #B8142F",
"=  c #AE1831",
"-  c #B41630",
";  c #B31B34",
":  c #BF1834",
">  c #BE1F39",
",  c #BC1732",
"<  c #AF2239",
"1  c #B7233C",
"2  c #BA233B",
"3  c #B1293F",
"4  c #C40625",
"5  c #C80727",
"6  c #C30827",
"7  c #C30B29",
"8  c #CC0B2B",
"9  c #D90124",
"0  c #DA0729",
"q  c #D40C2C",
"w  c #DB0C2E",
"e  c #C1122F",
"r  c #DB0E30",
"t  c #C11330",
"y  c #CD1634",
"u  c #C41A36",
"i  c #CB1A37",
"p  c #C71D39",
"a  c #DC1435",
"s  c #D61A39",
"d  c #DD1B3B",
"f  c #C5223D",
"g  c #CD233F",
"h  c #D2213E",
"j  c #DE203F",
"k  c #B52B42",
"l  c #B53348",
"z  c #B9344A",
"x  c #C32641",
"c  c #C92641",
"v  c #C32B45",
"b  c #CC2B45",
"n  c #CF2F4A",
"m  c #D42341",
"M  c #DE2442",
"N  c #DF2947",
"B  c #D22D48",
"V  c #DD2B49",
"C  c #D22B46",
"Z  c #CD354E",
"A  c #C1364D",
"S  c #D6304C",
"D  c #DC324E",
"F  c #CE3E56",
"G  c #C33E54",
"H  c #D73651",
"J  c #DD3551",
"K  c #D83F58",
"L  c #D93A54",
"P  c #E02847",
"I  c #E02C4A",
"U  c #E1314E",
"Y  c #E13551",
"T  c #E23A56",
"R  c #E33D58",
"E  c #BC4B5E",
"W  c #BF5869",
"Q  c #C64459",
"!  c #C84459",
"~  c #C2495D",
"^  c #C94A5E",
"/  c #D3445C",
"(  c #DB435C",
")  c #E3425C",
"_  c #CE4C61",
"`  c #D34B61",
"'  c #DB4B62",
"]  c #C15062",
"[  c #CF5367",
"{  c #CE5468",
"}  c #CC5A6D",
"|  c #C55A6C",
" . c #D25166",
".. c #DC5167",
"X. c #D6576C",
"o. c #DD536A",
"O. c #D4596E",
"+. c #DC5A6F",
"@. c #D45E71",
"#. c #DD5A70",
"$. c #E44660",
"%. c #E44C64",
"&. c #E54F68",
"*. c #E6546C",
"=. c #E7586F",
"-. c #E65B72",
";. c #E85E75",
":. c #C86878",
">. c #DA6175",
",. c #DF697C",
"<. c #D9697C",
"1. c #E86177",
"2. c #E76479",
"3. c #E9667B",
"4. c #E96A7E",
"5. c #E46B7F",
"6. c #DB7484",
"7. c #D37988",
"8. c #E96D82",
"9. c #E46D81",
"0. c #EA7286",
"q. c #E6798B",
"w. c #EA7B8D",
"e. c #E67486",
"r. c #EC7F91",
"t. c #DB808F",
"y. c #D78492",
"u. c #D18A96",
"i. c #DC8C99",
"p. c #DD8291",
"a. c #D9949F",
"s. c #E38494",
"d. c #EC8495",
"f. c #E78897",
"g. c #ED8798",
"h. c #EE8C9C",
"j. c #E38D9B",
"k. c #E1929F",
"l. c #EE93A2",
"z. c #EE99A7",
"x. c #F099A7",
"c. c #F19FAC",
"v. c #DCA2AB",
"b. c #E4A3AD",
"n. c #EFA0AD",
"m. c #F2A1AE",
"M. c #ECA5B0",
"N. c #E3ACB5",
"B. c #F1A5B1",
"V. c #F2AAB6",
"C. c #F2ADB9",
"Z. c #EAB2BB",
"A. c #F4B2BD",
"S. c #EBB7C0",
"D. c #E7BBC3",
"F. c #F5B7C1",
"G. c #F5BCC5",
"H. c #F6BFC8",
"J. c #EEC2C9",
"K. c #F5C4CC",
"L. c #F8C7CF",
"P. c #F6CAD1",
"I. c #F8CCD3",
"U. c #EFD3D7",
"Y. c #EFD5DA",
"T. c #F5D1D7",
"R. c #F8D1D7",
"E. c #F4D5DA",
"W. c #F9D4DA",
"Q. c #F0D9DC",
"!. c #F9D9DE",
"~. c #F4DFE2",
"^. c #FADDE2",
"/. c #F5E2E5",
"(. c #FAE3E7",
"). c #FBE6E9",
"_. c #FBEBED",
"`. c #FCEFF1",
"'. c #FDF5F6",
"]. c #FEF7F8",
"[. c #FFFFFF",
/* pixels */
"                                                w w w w w w w % q w w w                                                 ",
"                                          8 w w w w w w r w w O % 8 w w w w 7                                           ",
"                                    w w w 7 w w w w w w w w 7 # 7 7 7 7 & # # q w w                                     ",
"                                r w w w w & 7 w r w w w w 7 # q w w q q & o 8 w w w w w                                 ",
"                            w w w w w w w # o & 8 q w w 7 $ q w w w w w w $ 8 w w w r w w w                             ",
"                          w w w w w w w 7 # 7 7 7 & $ % # q w w w w w w w 8 7 w w r w w w w w                           ",
"                      # # 8 w w w w w & % q w w w q q O 7 w w w w w w w w q 7 w w w w w w w w 7 O                       ",
"                    q O o # $ 7 8 q & $ q w w w w w r 7 7 w w w w w w w w w $ q w w w w w w 8 # 8 w                     ",
"                  w 7 $ q q 8 7 $ O o q w w w w w w w q & w w w w w w w w w # # 8 w w w w 8 # 8 w w w                   ",
"                q & $ w w w w w w 7 $ w r w w w w w w w & q w w w w w w w 7 # & & & & 6 & # 8 w w w w w                 ",
"              $ # % q w r w w w w q $ w w w w w w w w w $ 8 w w w w w r 8 # 8 w w q 8 $ o & w w w w w r w               ",
"            8 O o q r w w w w w w w & q w w w w w w w w X . @ 8 q w w 7 # 8 w 0 w w 0 w @ 6 w w w w w w w w             ",
"            w q $ q w w w w w w w w & 7 d Y d w a a d ..| O.O.} } O.{ ; 8 d *.-.=.-.-.-.#.O.-.-.=.*.) I d w             ",
"          w w w 7 q w w w w w w w w & # h l.l.) d N ( (._.'.]._._.`.`.O.d V.'.].].].].].].].].].].'.`.^.H.h.%.          ",
"        w w w w 8 7 w w w w w w w w # o 2 y.7.S s v * %.*.0.(.0.%.0._.>.) '.[.[.[.[.[.[.[.[.[.[.[.[.[.[.[.[._.~.        ",
"        w w w w q # w w w w w w w 7 # 8 h s.j.{ - k 8 w 0 Y !.R 9 Y ).O.%.'.[.[.[.[.[.[.[.[.[.[.[.[.[.[.[.[.[.[.[.      ",
"      w w w w r q O 7 q w w w w 7 7 q w P d.l.%.i v w w w j P.m.-.z.).! ' '.[.[.[.[.[.[.[.[.[.[.[.[.[.[.[.[.[.[.[.[.    ",
"      w w w w w & O $ $ $ & 7 # # w w w j 4.A.%.s v q w w 0 2.).'.`.h.& ^ ].[.[.[.[.[.].].].].].].].[.[.[.[.[.[.[.[.[.  ",
"    r w w w w & # q w w q 7 $ o 8 w w w d ;.A.) d v 8 w d N P =.0.=.a + E ].[.[.[.[._.:.%.&.&.%.*.=.d.W.[.[.[.[.[.[.[.  ",
"    8 q w q & $ q w w w w r q # q w w w d %.-.I d b 7 2.K.!.(.!.!.H.X.X ` ].[.[.[.[.(.J 0 w 0 w 0 0 w V K.[.[.[.[.[.[.  ",
"    $ $ # O O q w w w w w w w 7 8 w w w a ) d w d b l /.R.m.m.m.c.T.U.B %.].[.[.[.[.(.Y w w w w w w w q ` ).[.[.[.[.[.[.",
"  w w q 7 O 7 w w w w w w w w q 8 w w w a *.j w d f W _.! 5 q q 6 Q ).=.%.'.[.[.[.[.).Y w w w w w w w w , D.[.[.[.[.[.[.",
"  w w w w 7 8 w w w w w w w w q $ q w w d R ) P i v ' `.6.f 2 1 1 6._.%.%.'.[.[.[.[.(.Y w w w w w w w w $ v.[.[.[.[.[.[.",
"  w w r w 8 8 w w r w w r w w q O 8 q w d 3.F./ u C P H.`.!.E.Y.Q.`.A.d %.'.[.[.[.[.(.J 0 w w w w w w q # v.[.[.[.[.[.[.",
"w w w w w q 7 w r w w w w w w 7 O $ $ @ p e.Z.! s I w N 8.d.d.d.t.5.M w %.'.[.[.[.[./.Z w w w w w w q # 7 V.[.[.[.[.[.'.",
"w w w w w w $ 8 w w w w w w 8 # q w q q b y.u./ d I w =.3.r 0 M @.+.j 0 %.'.[.[.[.[./.l & q w w w q $ 7 P P.[.[.[.[.].b.",
"w w w w w q # # 8 q w w w 7 $ q w w w w Y q.7...d P U (.B.a d A.'.'.B.d %.].[.[.[.[./.Z 6 6 7 & 7 # 7 w d.].[.[.[.[.~.! ",
"w w r w w 7 % 7 7 8 & $ # O q r w w w w U x.M...d N -._.%.w 3.].s.:.).*.%.].[.[.[.[.(.Y w w w 8 # % M d._.[.[.[.[.[.V., ",
"w w w w 7 $ q w w w q 7 o 6 w w w w w w T h.l.#.d P ;._.%.P K.W.g 3 /.,.' ].[.[.[.[.'.A.B.B.B.B.M.Z.R.].[.[.[.[.[.`.=.6 ",
"q w q & $ q w r w w r w 7 8 w w w w w w N h.l.Q s I Y ^.W.I.].q.@  .).../ '.[.[.[.[.[.[.[.[.[.[.[.[.[.[.[.[.[.[.].d.r 7 ",
"& % O # q w w w w w w w q 8 w w w w w w Y l.z.] u V w -.F.P.f.u 8 R w.d %.].[.[.[.[.[.[.[.[.[.[.[.[.[.[.[.[.[.'.h.d w $ ",
"w q % 7 w w w w w w w w w 7 w w w w w w T =.Z = - v & 8 y p $ 8 w w w w %.].[.[.[.[.[.[.[.[.[.[.[.[.[.[.[.'.H.1.a w & & ",
"w w 8 $ w w w w w w w r w & 8 w w w w w T f.p...d V q 8 @ . & w w w w 0 &.].[.[.[.[.[.].].'.].[.[.[.[.[.[.V.d w w & 6 w ",
"w w q & w w w w w w w w w % # 8 w w w w S  .) ) d D w d ( 1 5 w d U a 0 %.'.[.[.[.[._.8.%.*.=.I.[.[.[.[.[.!.n 5 $ & w w ",
"w w w 7 8 r w w w w w w 7 # & 7 7 7 & % - h P j d I d V._.<.5 w 4.(.h.a %.'.[.[.[.[.(.U 0 0 0 2.'.[.[.[.[.[.i.# # q w w ",
"w w w & & w w w r w w 7 # q w w w q 6 o A 0.d.%.d P %._.h.j y d T m.(.R %.'.[.[.[.[.(.J q w q u S.[.[.[.[.[.(.( $ q w w ",
"  w w # o $ 8 q q w 7 # q w w w w w w 5 f 0.%.) d P -._.R 9 <.B.a T ).-.%.'.[.[.[.[./.Z @ # O 6 -.'.[.[.[.[.[.M.* w w   ",
"  w 7 % 8 8 7 7 $ O # q w w w w w w w w g 0.g.4.d V ) _.V.w.P.'.A.K.(.R %.].[.[.[.[.(.Y 0 7 O q d A.[.[.[.[.[.`.^ q w   ",
"  7 $ q w w w w q # % w w w w w w w w w v 5.1.) d I a h.(._.J.t.K.T.6.8 ' ].[.[.[.[.(.Y w w & 8 w ;.'.[.[.[.[.[.b.u w   ",
"    q w w w w w w q $ w w w w w w w w w u k.V.%.d I a R L G h r s s 8 $ ~ ].[.[.[.[.(.U w w 8 8 w a B.[.[.[.[.[.'.E     ",
"    w w w r w w w w & q w w w w w w w w b a.q.D d P %.E.! 4 w w w w w q _ ].[.[.[.[.(.Y w w q 7 w w %.'.[.[.[.[.[.D.    ",
"    r w w w w w w w 7 8 w w w w w w w q u i.M.! y b f } h w a a a w w w %.'.[.[.[.[.(.Y w w q # 8 w a V.[.[.[.[.[.[.    ",
"      w w w w w w w 8 $ w r w w w w 8 @ B 0.3.) s b o Q B.H.H.H.F.B.) 0 %.].[.[.[.[.(.Y w w q o o 7 8 %.`.[.[.[.[.[.[.  ",
"      w w w w w w w 7 o $ 8 q w w 8 $ 8 N w.h.) d V B U.).P.P.L.P.).L.M %.].[.[.[.[.(.Y w w 6 # 7 6 # * N.[.[.[.[.[.[.  ",
"        w w w w w 8 % 7 8 7 7 7 $ O 8 w j l.V.) d N =._.*.a d d a *.).=.%.'.[.[.[.[.).J q 7 7 w w w q q ' ).[.[.[.[.[.[.",
"        w w w w 8 # q w w w w q $ % w w P l.g.T d N =._.=.a a a a =.).*.$.'.[.[.[.[.(.D 4 6 w w w w w w r n.[.[.[.[.[.[.",
"          q q 7 % q w w w w w r q $ w w U g.d.%.d I I R._.L.L.L.P.).K.M c J.[.[.[.].b.= # q w w w w w w w K /.[.[.[.[.  ",
"            O o 5 w w w w w w w w 6 8 w P 4.;.T a j w F u.b.n.m.B.h.D & 7 N 3.h.h.2.d # 7 w w w w w w w w q i.[.[.      ",
"            7 # 8 w w w w w w r w 8 7 w w a w w r w q # O $ e 7 8 7 # & w w w w w w w 8 7 w w w w w w w r w             ",
"              O 8 w w w r w w w w 8 $ w w w w w w q $ 7 q w q 8 & O # w w w w w w w w w 7 w w w w w w w w               ",
"                q w w w w w w w w 7 o & 8 q w w q $ 7 w w w w w w 7 & w w w w w w w w w & 8 w w w w w w                 ",
"                  w r w w w w w q % 7 7 7 7 & & # 7 w w w w w w w w 7 w w w w w r w w w $ & w w r w r                   ",
"                    w w w w w q $ q r w w w q & # q w w w w w r w w 8 q w w w w w w w q # O % 7 q w                     ",
"                      w q q 8 $ 8 w w w w w w q & q r w w w w w w w 7 8 w w w w w w w 7 $ 8 8 7 &                       ",
"                          O O 7 w w w w w w w w 8 q w r w w w w w w 7 O 8 w w w w w 7 7 w w w                           ",
"                            o q w w w w w w w w 8 8 w w w w w w w w # O $ 8 8 8 8 & & q w w                             ",
"                                w w w w w w w w q $ q w w w w w w & & q q q q 7 O O r w                                 ",
"                                    w w w w w w 8 o & q w w w q & 7 r w w w w w 8 #                                     ",
"                                          w r w $ % 7 7 7 7 6 $ 7 w w w w w w                                           ",
"                                                % q w w w 8 # O q w w w                                                 "
};
