/* XPM */
static char *d9b3c13f2d534d0fc688c37c9f1ee0c1[] = {
/* columns rows colors chars-per-pixel */
"16 16 149 2 ",
"   c None",
".  c #CA0525",
"X  c #C70B2A",
"o  c #CA0929",
"O  c #CB0A29",
"+  c #C80B2A",
"@  c #CA0B2A",
"#  c #CA0B2B",
"$  c #CB0B2B",
"%  c #CC0929",
"&  c #CE092A",
"*  c #CC0B2B",
"=  c #CD0B2B",
"-  c #CE0A2A",
";  c #CF0A2A",
":  c #CE0B2B",
">  c #CF0B2B",
",  c #CF0B2C",
"<  c #CE0C2C",
"1  c #CF0D2C",
"2  c #CE0D2D",
"3  c #D40225",
"4  c #D0092A",
"5  c #D00A2B",
"6  c #D10A2B",
"7  c #D30A2B",
"8  c #D5092B",
"9  c #D00B2C",
"0  c #D10B2C",
"q  c #D20B2C",
"w  c #D30B2C",
"e  c #D40B2C",
"r  c #D70B2C",
"t  c #D20C2C",
"y  c #D30F2F",
"u  c #D40C2C",
"i  c #D40C2D",
"p  c #D50C2D",
"a  c #D60C2D",
"s  c #D70C2D",
"d  c #D70D2E",
"f  c #DA092B",
"g  c #D80A2C",
"h  c #DB0A2C",
"j  c #D80C2D",
"k  c #D90C2E",
"l  c #DA0C2E",
"z  c #DB0C2E",
"x  c #DC0C2E",
"c  c #DC0D2F",
"v  c #DA0E30",
"b  c #D01332",
"n  c #D21232",
"m  c #D11433",
"M  c #DD1435",
"N  c #D11E3C",
"B  c #D52845",
"V  c #D22C47",
"C  c #DA2A47",
"Z  c #D2324D",
"A  c #D3334E",
"S  c #D7304C",
"D  c #DC324E",
"F  c #DE3550",
"G  c #DE3551",
"H  c #D63B54",
"J  c #D53C55",
"K  c #D93B55",
"L  c #DC3A54",
"P  c #D93F58",
"I  c #E02947",
"U  c #E13551",
"Y  c #E23D58",
"T  c #DF415B",
"R  c #DD425B",
"E  c #D8435C",
"W  c #DB455D",
"Q  c #DC455E",
"!  c #DD4962",
"~  c #D84C63",
"^  c #DA5268",
"/  c #DD576D",
"(  c #DC586D",
")  c #DF5F74",
"_  c #E04660",
"`  c #E1576D",
"'  c #E5576E",
"]  c #E35D73",
"[  c #E05E73",
"{  c #DF6075",
"}  c #E46378",
"|  c #E4657A",
" . c #E0697D",
".. c #E26B7F",
"X. c #E9697E",
"o. c #DE6D80",
"O. c #E07184",
"+. c #EA7185",
"@. c #E97286",
"#. c #E27789",
"$. c #EA7789",
"%. c #E37A8B",
"&. c #E37B8C",
"*. c #E37D8E",
"=. c #E37F8F",
"-. c #E57D8E",
";. c #E67F90",
":. c #EA7F90",
">. c #EA7F91",
",. c #EC7E90",
"<. c #E18090",
"1. c #E28695",
"2. c #E88494",
"3. c #EC8697",
"4. c #EE899A",
"5. c #EC8D9D",
"6. c #EE93A2",
"7. c #EF93A2",
"8. c #ED98A6",
"9. c #E89BA8",
"0. c #EF9BA9",
"q. c #EF9CA9",
"w. c #EC9DAA",
"e. c #EE9EAB",
"r. c #EDA0AD",
"t. c #ECA1AD",
"y. c #EAAAB5",
"u. c #F1BAC3",
"i. c #F1C6CD",
"p. c #F8CED5",
"a. c #F5D7DC",
"s. c #FBE0E4",
"d. c #FBE2E6",
"f. c #FBE5E8",
"g. c #FAE7EA",
"h. c #FCEDEF",
"j. c #FBF3F4",
"k. c #FCF2F4",
"l. c #FEF2F4",
"z. c #FDF4F5",
"x. c #FDF4F6",
"c. c #FDF5F6",
"v. c #FEF5F6",
"b. c #FCF6F7",
"n. c #FDF9F9",
"m. c #FEFCFC",
"M. c #FFFEFE",
"N. c #FEFFFF",
"B. c white",
/* pixels */
"          t s s @ : =           ",
"      @ p * , $ j p q z q       ",
"    X 0 * w z 2 d e O - - f     ",
"  i > x 7 V C ^ O.( 5.w.e.7.6.  ",
"  s # 9 % R J D 4.<.k.g.p.d.m.M.",
"9 + p p 5 I S o.*.=.x.3.M F a.B.",
"z 9 s a o K P | %.$.v.-.3 m i.n.",
"i = 0 $ g _ ! +.&.;.z.u.#.9.l.t.",
"$ p x 9 r L A J B ' x.f.s.B.r.N ",
"9 = t : 6 Z Y } ] ,.v.2.E h.y.b ",
"9 p = s h P T [ ` { b.:.& q.j.1.",
"  x 9 : 4 W Q  .X.@.c.>.. H g.N.",
"  $ : j ; G U ) ../ 0.~ 8 v 8.B.",
"    a z > 1 < y n 9 c q t z     ",
"      @ t k 9 l j = u : =       ",
"          z * : * u >           "
};
