/* XPM */
static char *fda6656624f44a40f4f154be009b6a80[] = {
/* columns rows colors chars-per-pixel */
"32 32 124 2 ",
"   c None",
".  c #AA0924",
"X  c #BC0725",
"o  c #B60A27",
"O  c #BA0A27",
"+  c #BD0B28",
"@  c #B6122D",
"#  c #BC1531",
"$  c #C30726",
"%  c #C40827",
"&  c #CD0728",
"*  c #C40B29",
"=  c #CB0B2B",
"-  c #D00527",
";  c #D10728",
":  c #D40B2C",
">  c #DB0C2E",
",  c #C2112E",
"<  c #DB0F30",
"1  c #C51431",
"2  c #CD1331",
"3  c #C11834",
"4  c #C81835",
"5  c #C31F3A",
"6  c #D21332",
"7  c #DC1334",
"8  c #D31836",
"9  c #DD1939",
"0  c #C5233E",
"q  c #D5213F",
"w  c #BF2740",
"e  c #CF2742",
"r  c #CE2C46",
"t  c #D32541",
"y  c #DD2140",
"u  c #D32E49",
"i  c #CE334D",
"p  c #D4354F",
"a  c #DE304D",
"s  c #CD3A52",
"d  c #DA3752",
"f  c #DB3A55",
"g  c #E02947",
"h  c #E12B49",
"j  c #E1314E",
"k  c #E13451",
"l  c #E23C57",
"z  c #C9455B",
"x  c #D6445C",
"c  c #DA415A",
"v  c #E3435D",
"b  c #CD4E63",
"n  c #D64A61",
"m  c #DC4A62",
"M  c #C95366",
"N  c #D35167",
"B  c #DA5067",
"V  c #D5546A",
"C  c #D9546A",
"Z  c #D95E72",
"A  c #E44D66",
"S  c #E4526A",
"D  c #E6586F",
"F  c #E45971",
"G  c #DF6277",
"H  c #D06F7F",
"J  c #DF6B7E",
"K  c #E56277",
"L  c #E86076",
"P  c #E0667A",
"I  c #E9657B",
"U  c #D57383",
"Y  c #DC7385",
"T  c #D97888",
"R  c #E16F82",
"E  c #E96C81",
"W  c #E37285",
"Q  c #EA7386",
"!  c #E47688",
"~  c #EB7689",
"^  c #E47E8F",
"/  c #EC7B8E",
"(  c #E67F90",
")  c #E87F90",
"_  c #DE8F9C",
"`  c #DB939F",
"'  c #E38393",
"]  c #ED8394",
"[  c #E48897",
"{  c #E38C9A",
"}  c #ED8C9C",
"|  c #E3909E",
" . c #E8909E",
".. c #DF97A3",
"X. c #EE92A1",
"o. c #E59BA7",
"O. c #E39DA9",
"+. c #F097A6",
"@. c #E3A1AC",
"#. c #EAA2AE",
"$. c #F2A1AE",
"%. c #EAA4B0",
"&. c #E2AAB3",
"*. c #EDAAB5",
"=. c #F2A4B1",
"-. c #F2AAB6",
";. c #F3B3BD",
":. c #F5BBC5",
">. c #F5BFC8",
",. c #ECC2C9",
"<. c #EFCBD1",
"1. c #F5CDD4",
"2. c #F8CDD4",
"3. c #F5D7DC",
"4. c #F9D6DC",
"5. c #F7DADF",
"6. c #FAD8DD",
"7. c #F7E0E4",
"8. c #FBE5E9",
"9. c #FBEBED",
"0. c #FDEEF0",
"q. c #FCF2F4",
"w. c #FEF7F8",
"e. c #FFFEFF",
/* pixels */
"                        > > > > * * > >                         ",
"                  > > = > > < : * * : * * > >                   ",
"              > > > : O * = * * > > > = = > > > >               ",
"            o = > > * ; : : + = > > < > : > > > > *             ",
"          = * = = + = > > > : = > > > > + * : : = ; >           ",
"        o = > > > * : > > > : $ : > > = % & & + $ > > >         ",
"      = + > > > > = 2 h 7 > d M N C s 1 v S S C m S A k 9       ",
"    > > = : > > > = @ Y f = C +.;.] o.K 9.w.w.w.w.w.w.9.,.,.    ",
"    > > = * > > : = 6 ' n + > g } F o.T e.e.e.e.e.e.e.e.e.e.e.  ",
"  < > > * * = * + : < / S * : 9 ~ $.x U e.e.q.*.=.=.;.9.e.e.e.  ",
"  * = + = > > : = > < S j * G $.+.-.V T e.e.3.y > > 7 S 7.e.e.e.",
"  : + * < > > > = > 7 j 7 , ` V r N X./ e.e.3.y > > > ; @.e.e.e.",
"> > : = > > > > + * : I x = Q #._ O.E ~ e.e.3.y > > > = ..e.e.e.",
"> > < = : > > : * = 2 ' C > S I S } k ~ e.e.3.5 ; : = = -.e.e.<.",
"> > : + = = * * > > 9 ! c 7  .v } &.' / e.e.6.u 8 4 0 ! 9.e.e.T ",
": : * : > < + = > > 7 Q x 7 X.=.*.s [ / e.e.w.2.1.1.5.w.e.e.:.q ",
"= + : < > > : : > > 7 D r * p Y s 8 k ~ e.e.e.e.e.e.e.e.q.-.a % ",
"> = : > > > : * : > 9 B q : = # = 7 > / e.e.q.-.=.8.e.e.;.8 % : ",
"> = = > > > = + : = # n a 6 ~ J : I I / e.e.6.y > { e.e.9.z $ > ",
"> * + = = * = > > > 1 F k 7 X.A ! I +./ e.e.3.q X u 6.e.e.%.6 > ",
"  * : > = + : > > > 6 J v > L *.{  .C ! e.e.4.y = & ] e.e.q.V   ",
"  > < > > = > > > > 6 U m 7 S r : > ; Y e.e.4.y : = h 4.e.e.,.  ",
"  > > > > = = > > : 1 R f * b } X.} j Q e.e.6.y : O = ^ e.e.e.  ",
"    > > : + = = = * 7 ~ A 7 } ] E ) } / e.e.4.y % = = e 1.e.e.e.",
"    > : * : > > = = 9 } S <  .X.Q } } K q.e.,.# ; > > > ~ e.e.e.",
"      o * < > > > = 7 l g > p H R R i 2 F Q f = > < > > q       ",
"        = > > > > + = > > = % ; & X $ > > > > = > > > >         ",
"          < > > : * * : $ % > > > > : > > > > * * : >           ",
"            : = * > > > = = > > > > = : > > : * = =             ",
"              . : > > > < : > > > > O * = = = : >               ",
"                  > > > > + = > : = ; < : + *                   ",
"                        = * = = + = > >                         "
};
